# xmcd
#
# Track frame offsets:
#	150
#	14165
#	42302
#	54907
#	72682
#	86960
#	128810
#	175282
#	188475
#	201985
#	213787
#	225475
#
# Disc length: 3273 seconds
#
# Revision: 1
# Processed by: cddbd v1.5.1PL2 Copyright (c) Steve Scherf et al.
# Submitted via: audiograbber 1.83.01
#
DISCID=ac0cc70c
DTITLE=CÉZAR DO ACORDEON - RESPEITA GONZAGÃO
DYEAR=1900
DGENRE=
TTITLE0=BAIÃO
TTITLE1=POUT-POURRI DE XOTES
TTITLE2=PÉ DE SEERA
TTITLE3=POUT-POURRI DE ZÉ MARCOLINO
TTITLE4=AOS AMIGOS DE SOROCABA
TTITLE5=POUT-POURRI DE BAIÃO-ASA BRANCA
TTITLE6=POUT-POURRI DE ARRASTA PÉ
TTITLE7=DÚVIDA
TTITLE8=UM ABRAÇO NO PRATINHA
TTITLE9=FORRÓ E FOLIA
TTITLE10=PROVOCANDO AS CORDAS
TTITLE11=TEMA DO BARBOSA
EXTD=
EXTT0=
EXTT1=
EXTT2=
EXTT3=
EXTT4=
EXTT5=
EXTT6=
EXTT7=
EXTT8=
EXTT9=
EXTT10=
EXTT11=
PLAYORDER=
